<svg width="64" height="64" viewBox="0 0 64 64" fill="none" xmlns="http://www.w3.org/2000/svg">
<path d="M57 57H7V60H57V57Z" fill="black"/>
<path d="M47.25 10H39V8.5C39 6.01872 36.9813 4 34.5 4H28.5C26.0187 4 24 6.01872 24 8.5V10H15.75C13.6823 10 12 11.6823 12 13.75V19C12 19.8284 12.6716 20.5 13.5 20.5H14.3198L15.6157 47.714C15.7301 50.1174 17.7045 52 20.1105 52H42.8895C45.2956 52 47.27 50.1174 47.3843 47.714L48.6803 20.5H49.5C50.3284 20.5 51 19.8284 51 19V13.75C51 11.6823 49.3177 10 47.25 10ZM27 8.5C27 7.67294 27.6729 7 28.5 7H34.5C35.3271 7 36 7.67294 36 8.5V10H27V8.5ZM15 13.75C15 13.3365 15.3365 13 15.75 13H47.25C47.6635 13 48 13.3365 48 13.75V17.5C47.5377 17.5 16.9156 17.5 15 17.5V13.75ZM44.3877 47.5713C44.3496 48.3724 43.6914 49 42.8895 49H20.1105C19.3085 49 18.6503 48.3724 18.6123 47.5713L17.3231 20.5H45.6769L44.3877 47.5713Z" fill="black"/>
<path d="M31.5 46C32.3284 46 33 45.3284 33 44.5V25C33 24.1716 32.3284 23.5 31.5 23.5C30.6716 23.5 30 24.1716 30 25V44.5C30 45.3284 30.6715 46 31.5 46Z" fill="black"/>
<path d="M39 46C39.8284 46 40.5 45.3284 40.5 44.5V25C40.5 24.1716 39.8284 23.5 39 23.5C38.1716 23.5 37.5 24.1716 37.5 25V44.5C37.5 45.3284 38.1715 46 39 46Z" fill="black"/>
<path d="M24 46C24.8284 46 25.5 45.3284 25.5 44.5V25C25.5 24.1716 24.8284 23.5 24 23.5C23.1716 23.5 22.5 24.1716 22.5 25V44.5C22.5 45.3284 23.1715 46 24 46Z" fill="black"/>
</svg>
