<svg width="64" height="64" viewBox="0 0 64 64" fill="none" xmlns="http://www.w3.org/2000/svg">
<path d="M57 57H7V60H57V57Z" fill="black"/>
<path d="M12.4416 53H12.7258L26.4346 50.0203C26.7017 49.9759 26.9491 49.8523 27.1449 49.6656L50.3716 26.4664C52.0684 24.7753 53.015 22.4752 52.9998 20.0813C53.0029 17.6688 52.0594 15.3512 50.3716 13.6252C48.6787 11.9305 46.3759 10.985 43.979 11.0003C41.5668 10.979 39.2531 11.9547 37.5863 13.6963L14.4304 36.8954C14.2262 37.0595 14.0773 37.2824 14.0042 37.5339L11.021 51.2264C10.9396 51.718 11.0978 52.2188 11.4472 52.5744C11.7095 52.8417 12.0669 52.9947 12.4416 53ZM43.979 13.8382C47.3919 13.8379 50.1587 16.6012 50.159 20.01C50.159 20.0338 50.1589 20.0575 50.1586 20.0813C50.1819 21.7053 49.5404 23.2684 48.3829 24.4089L39.6462 15.6116C40.7972 14.4692 42.3562 13.831 43.979 13.8382ZM37.6573 17.6692L46.394 26.3955L26.1504 46.5439L17.4137 37.8886L37.6573 17.6692ZM16.2772 40.7265L23.3091 47.7501L14.2883 49.7366L16.2772 40.7265Z" fill="black"/>
</svg>
