<svg width="422" height="119" viewBox="0 0 422 119" fill="none" xmlns="http://www.w3.org/2000/svg">
<path d="M26.9525 1.96353V49.5453L65.9764 1.96353H98.154L51.9415 56.0493L101.748 116.125H67.8591L26.9525 65.4629V116.125H0.594284V1.96353H26.9525Z" fill="black"/>
<path d="M156.334 1.96353H182.692V76.5882L235.58 0.594284H258.857V116.125H232.499V41.3297L179.612 117.495H156.334V1.96353Z" fill="black"/>
<path d="M324.944 1.96353H420.963V116.125H394.605V24.214H351.302V116.125H324.944V1.96353Z" fill="black"/>
<path fill-rule="evenodd" clip-rule="evenodd" d="M27.5468 1.36925V47.8835L65.6952 1.36925H99.4435L52.7183 56.055L103.013 116.72H67.5752L27.5468 67.145V116.72H0V1.36925H27.5468ZM26.9525 65.4629L67.8591 116.125H101.748L51.9415 56.0493L98.154 1.96353H65.9764L26.9525 49.5453V1.96353H0.594284V116.125H26.9525V65.4629ZM155.74 1.36925H183.287V74.6938L235.27 0H259.452V116.72H231.905V43.2276L179.922 118.089H155.74V1.36925ZM232.499 41.3297V116.125H258.857V0.594284H235.58L182.692 76.5882V1.96353H156.334V117.495H179.612L232.499 41.3297ZM324.35 1.36925H421.558V116.72H394.011V24.8083H351.897V116.72H324.35V1.36925ZM351.302 24.214H394.605V116.125H420.963V1.96353H324.944V116.125H351.302V24.214Z" fill="black"/>
</svg>
