<svg width="423" height="200" viewBox="0 0 423 200" fill="none" xmlns="http://www.w3.org/2000/svg">
<path d="M26.9525 1.96353V49.5453L65.9764 1.96353H98.154L51.9415 56.0493L101.748 116.125H67.8591L26.9525 65.4629V116.125H0.594284V1.96353H26.9525Z" fill="black"/>
<path d="M156.334 1.96353H182.692V76.5882L235.58 0.594284H258.857V116.125H232.499V41.3297L179.612 117.495H156.334V1.96353Z" fill="black"/>
<path d="M324.944 1.96353H420.963V116.125H394.605V24.214H351.302V116.125H324.944V1.96353Z" fill="black"/>
<path fill-rule="evenodd" clip-rule="evenodd" d="M27.5468 1.36925V47.8835L65.6952 1.36925H99.4435L52.7183 56.055L103.013 116.72H67.5752L27.5468 67.145V116.72H0V1.36925H27.5468ZM26.9525 65.4629L67.8591 116.125H101.748L51.9415 56.0493L98.154 1.96353H65.9764L26.9525 49.5453V1.96353H0.594284V116.125H26.9525V65.4629ZM155.74 1.36925H183.287V74.6938L235.27 0H259.452V116.72H231.905V43.2276L179.922 118.089H155.74V1.36925ZM232.499 41.3297V116.125H258.857V0.594284H235.58L182.692 76.5882V1.96353H156.334V117.495H179.612L232.499 41.3297ZM324.35 1.36925H421.558V116.72H394.011V24.8083H351.897V116.72H324.35V1.36925ZM351.302 24.214H394.605V116.125H420.963V1.96353H324.944V116.125H351.302V24.214Z" fill="black"/>
<path d="M31.1209 178.881V189.189C28.3642 190.587 25.5104 191.286 22.5595 191.286C16.2306 191.286 11.1443 189.403 7.30035 185.637C3.2623 181.715 1.24328 176.804 1.24328 170.902C1.24328 165.078 3.2623 160.205 7.30035 156.283C11.1443 152.556 15.9783 150.692 21.8024 150.692C24.6756 150.692 27.7818 151.41 31.1209 152.847V163.214C28.5195 160.457 25.491 159.079 22.0353 159.079C18.8515 159.079 16.2112 160.088 14.1145 162.107C11.6684 164.476 10.4454 167.466 10.4454 171.077C10.4454 174.61 11.5714 177.464 13.8233 179.638C15.9977 181.812 18.7932 182.899 22.2101 182.899C25.4327 182.899 28.403 181.56 31.1209 178.881Z" fill="black"/>
<path d="M75.6144 159.137H67.1694V190.413H58.2003V159.137H49.7553V151.566H75.6144V159.137Z" fill="black"/>
<path d="M92.1657 151.566H102.183L110.337 169.504L118.141 151.566H127.809L110.046 190.413H100.378L106.027 179.23L92.1657 151.566Z" fill="black"/>
<path d="M147.163 151.566H175.003V182.958H179.371V199.149H171.334V190.413H147.513V199.149H139.476V182.958C141.301 182.608 142.757 181.89 143.844 180.803C144.853 179.871 145.61 178.59 146.115 176.959C146.659 175.289 146.969 173.872 147.047 172.707C147.125 171.504 147.163 169.931 147.163 167.99V151.566ZM155.783 159.021V167.699C155.783 171.892 155.531 174.92 155.026 176.784C154.366 179.191 153.201 181.249 151.532 182.958H166.15V159.021H155.783Z" fill="black"/>
<path d="M226.265 178.881V189.189C223.508 190.587 220.654 191.286 217.703 191.286C211.375 191.286 206.288 189.403 202.444 185.637C198.406 181.715 196.387 176.804 196.387 170.902C196.387 165.078 198.406 160.205 202.444 156.283C206.288 152.556 211.122 150.692 216.946 150.692C219.819 150.692 222.926 151.41 226.265 152.847V163.214C223.663 160.457 220.635 159.079 217.179 159.079C213.995 159.079 211.355 160.088 209.258 162.107C206.812 164.476 205.589 167.466 205.589 171.077C205.589 174.61 206.715 177.464 208.967 179.638C211.142 181.812 213.937 182.899 217.354 182.899C220.577 182.899 223.547 181.56 226.265 178.881Z" fill="black"/>
<path d="M266.828 150.692C272.963 150.692 277.971 152.575 281.854 156.342C285.892 160.263 287.911 165.155 287.911 171.018C287.911 176.804 285.892 181.657 281.854 185.579C277.933 189.384 272.924 191.286 266.828 191.286C260.693 191.286 255.646 189.384 251.685 185.579C249.783 183.792 248.288 181.657 247.201 179.172C246.152 176.648 245.628 173.969 245.628 171.135C245.628 168.417 246.172 165.738 247.259 163.098C248.385 160.418 249.841 158.186 251.627 156.4C255.432 152.595 260.499 150.692 266.828 150.692ZM266.77 158.962C263.314 158.962 260.48 160.069 258.266 162.282C255.976 164.495 254.83 167.427 254.83 171.077C254.83 174.571 256.014 177.483 258.383 179.813C260.635 181.948 263.411 183.016 266.711 183.016C270.245 183.016 273.118 181.909 275.331 179.696C277.583 177.522 278.709 174.629 278.709 171.018C278.709 167.446 277.583 164.534 275.331 162.282C273.04 160.069 270.186 158.962 266.77 158.962Z" fill="black"/>
<path d="M308.562 151.566H320.443C324.947 151.566 328.247 152.556 330.344 154.536C332.208 156.322 333.139 158.768 333.139 161.874C333.139 163.816 332.712 165.466 331.858 166.825C331.082 168.106 329.994 169.058 328.597 169.679C330.771 170.028 332.557 170.902 333.955 172.3C335.624 173.969 336.459 176.279 336.459 179.23C336.459 182.453 335.45 185.074 333.431 187.093C331.14 189.306 327.723 190.413 323.18 190.413H308.562V151.566ZM317.414 158.555V167.349H318.87C320.889 167.349 322.404 166.98 323.413 166.243C324.461 165.505 324.986 164.359 324.986 162.806C324.986 161.409 324.481 160.321 323.471 159.545C322.617 158.885 321.064 158.555 318.812 158.555H317.414ZM317.414 173.989V183.424H319.569C322.87 183.424 325.083 182.899 326.209 181.851C327.063 181.075 327.49 179.987 327.49 178.59C327.49 177.231 327.082 176.182 326.267 175.445C325.219 174.474 323.083 173.989 319.86 173.989H317.414Z" fill="black"/>
<path d="M379.077 151.566V159.137H366.089V166.65H378.436V174.222H366.089V182.841H379.077V190.413H357.12V151.566H379.077Z" fill="black"/>
<path d="M422.406 159.137H413.961V190.413H404.992V159.137H396.547V151.566H422.406V159.137Z" fill="black"/>
<path fill-rule="evenodd" clip-rule="evenodd" d="M31.7152 177.461V189.554L31.3897 189.72C28.5537 191.158 25.6082 191.88 22.5595 191.88C16.1051 191.88 10.8597 189.956 6.88549 186.062C2.72666 182.023 0.648995 176.955 0.648995 170.902C0.648995 164.923 2.72863 159.895 6.88632 155.857C10.8513 152.012 15.8387 150.098 21.8024 150.098C24.7747 150.098 27.9614 150.841 31.3558 152.301L31.7152 152.456V164.71L30.6887 163.622C28.1875 160.971 25.3106 159.673 22.0353 159.673C18.9897 159.673 16.5023 160.633 14.5273 162.535C12.2048 164.784 11.0397 167.616 11.0397 171.077C11.0397 174.471 12.1156 177.163 14.2362 179.21L14.2399 179.214L14.2436 179.218C16.2936 181.268 18.9317 182.305 22.2101 182.305C25.2483 182.305 28.0751 181.049 30.7038 178.458L31.7152 177.461ZM14.1145 162.107C16.2112 160.088 18.8515 159.079 22.0353 159.079C25.231 159.079 28.0615 160.258 30.5267 162.615C30.7272 162.807 30.9253 163.007 31.1209 163.214V152.847C27.7818 151.41 24.6756 150.692 21.8024 150.692C15.9783 150.692 11.1443 152.556 7.30035 156.283C3.2623 160.205 1.24328 165.078 1.24328 170.902C1.24328 176.804 3.2623 181.715 7.30035 185.637C11.1443 189.403 16.2306 191.286 22.5595 191.286C25.5104 191.286 28.3642 190.587 31.1209 189.189V178.881C30.9242 179.075 30.7261 179.262 30.5267 179.442C27.9716 181.747 25.1994 182.899 22.2101 182.899C18.7932 182.899 15.9977 181.812 13.8233 179.638C11.5714 177.464 10.4454 174.61 10.4454 171.077C10.4454 167.466 11.6684 164.476 14.1145 162.107ZM76.2087 159.731H67.7637V191.007H57.606V159.731H49.1611V150.971H76.2087V159.731ZM58.2003 159.137V190.413H67.1694V159.137H75.6144V151.566H49.7553V159.137H58.2003ZM91.2033 150.971H102.566L110.325 168.042L117.752 150.971H128.735L110.427 191.007H99.4117L105.362 179.229L91.2033 150.971ZM106.027 179.23L100.378 190.413H110.046L127.809 151.566H118.141L110.337 169.504L102.183 151.566H92.1657L106.027 179.23ZM146.569 150.971H175.597V182.363H179.965V199.743H170.739V191.007H148.107V199.743H138.881V182.466L139.364 182.374C141.097 182.042 142.437 181.369 143.424 180.383L143.432 180.374L143.441 180.366C144.357 179.521 145.066 178.338 145.547 176.783L145.549 176.779L145.55 176.775C146.085 175.131 146.381 173.765 146.454 172.668C146.53 171.482 146.569 169.924 146.569 167.99V150.971ZM147.047 172.707C146.969 173.872 146.659 175.289 146.115 176.959C145.61 178.59 144.853 179.871 143.844 180.803C142.757 181.89 141.301 182.608 139.476 182.958V199.149H147.513V190.413H171.334V199.149H179.371V182.958H175.003V151.566H147.163V167.99C147.163 169.931 147.125 171.504 147.047 172.707ZM155.6 176.94L155.599 176.941C155.038 178.986 154.124 180.796 152.855 182.363H165.556V159.615H156.377V167.699C156.377 171.898 156.127 174.994 155.6 176.94ZM155.783 167.699C155.783 171.892 155.531 174.92 155.026 176.784C154.441 178.919 153.459 180.778 152.08 182.363C151.904 182.566 151.721 182.764 151.532 182.958H166.15V159.021H155.783V167.699ZM226.859 177.461V189.554L226.534 189.72C223.698 191.158 220.752 191.88 217.703 191.88C211.249 191.88 206.003 189.956 202.029 186.062C197.871 182.023 195.793 176.955 195.793 170.902C195.793 164.923 197.873 159.895 202.03 155.857C205.995 152.012 210.983 150.098 216.946 150.098C219.919 150.098 223.105 150.841 226.5 152.301L226.859 152.456V164.71L225.833 163.622C223.331 160.971 220.455 159.673 217.179 159.673C214.133 159.673 211.646 160.634 209.671 162.535C207.349 164.784 206.184 167.616 206.184 171.077C206.184 174.471 207.259 177.163 209.38 179.21L209.384 179.214L209.388 179.218C211.438 181.268 214.076 182.305 217.354 182.305C220.392 182.305 223.219 181.049 225.848 178.458L226.859 177.461ZM209.258 162.107C211.355 160.088 213.995 159.079 217.179 159.079C220.375 159.079 223.205 160.258 225.671 162.615C225.871 162.807 226.069 163.007 226.265 163.214V152.847C222.926 151.41 219.819 150.692 216.946 150.692C211.122 150.692 206.288 152.556 202.444 156.283C198.406 160.205 196.387 165.078 196.387 170.902C196.387 176.804 198.406 181.715 202.444 185.637C206.288 189.403 211.375 191.286 217.703 191.286C220.654 191.286 223.508 190.587 226.265 189.189V178.881C226.068 179.075 225.87 179.262 225.671 179.442C223.116 181.747 220.343 182.899 217.354 182.899C213.937 182.899 211.142 181.812 208.967 179.638C206.715 177.464 205.589 174.61 205.589 171.077C205.589 167.466 206.812 164.476 209.258 162.107ZM282.268 155.915C286.427 159.954 288.505 165.002 288.505 171.018C288.505 176.959 286.425 181.968 282.268 186.005C278.222 189.93 273.059 191.88 266.828 191.88C260.56 191.88 255.36 189.932 251.276 186.009C249.314 184.167 247.774 181.965 246.656 179.41L246.654 179.405L246.652 179.4C245.572 176.801 245.034 174.044 245.034 171.135C245.034 168.335 245.594 165.58 246.709 162.871L246.711 162.867C247.862 160.128 249.359 157.828 251.207 155.98C255.143 152.044 260.371 150.098 266.828 150.098C273.095 150.098 278.259 152.027 282.268 155.915ZM251.685 185.579C255.646 189.384 260.693 191.286 266.828 191.286C272.924 191.286 277.933 189.384 281.854 185.579C285.892 181.657 287.911 176.804 287.911 171.018C287.911 165.155 285.892 160.263 281.854 156.342C277.971 152.575 272.963 150.692 266.828 150.692C260.499 150.692 255.432 152.595 251.627 156.4C249.841 158.186 248.385 160.418 247.259 163.098C246.172 165.738 245.628 168.417 245.628 171.135C245.628 173.969 246.152 176.648 247.201 179.172C248.288 181.657 249.783 183.792 251.685 185.579ZM258.683 162.706L258.679 162.71C256.522 164.794 255.425 167.562 255.425 171.077C255.425 174.419 256.55 177.174 258.796 179.385C260.929 181.406 263.555 182.422 266.711 182.422C270.109 182.422 272.824 181.363 274.911 179.276L274.915 179.272L274.918 179.269C277.036 177.224 278.115 174.495 278.115 171.018C278.115 167.585 277.039 164.832 274.914 162.706C272.744 160.611 270.043 159.557 266.77 159.557C263.454 159.557 260.776 160.613 258.687 162.702L258.683 162.706ZM275.331 162.282C277.583 164.534 278.709 167.446 278.709 171.018C278.709 174.629 277.583 177.522 275.331 179.696C273.118 181.909 270.245 183.016 266.711 183.016C263.411 183.016 260.635 181.948 258.383 179.813C256.014 177.483 254.83 174.571 254.83 171.077C254.83 167.427 255.976 164.495 258.266 162.282C260.48 160.069 263.314 158.962 266.77 158.962C270.186 158.962 273.04 160.069 275.331 162.282ZM307.967 150.971H320.443C325.016 150.971 328.497 151.974 330.752 154.104L330.755 154.107C332.759 156.028 333.734 158.642 333.734 161.874C333.734 163.902 333.288 165.665 332.365 167.136C331.802 168.063 331.087 168.832 330.225 169.439C331.839 169.921 333.227 170.732 334.375 171.879C336.182 173.687 337.053 176.163 337.053 179.23C337.053 182.588 335.996 185.368 333.851 187.513L333.847 187.517L333.844 187.52C331.402 189.879 327.811 191.007 323.18 191.007H307.967V150.971ZM329.542 169.87C329.235 169.794 328.92 169.731 328.597 169.679C328.894 169.546 329.178 169.399 329.447 169.237C330.443 168.637 331.247 167.833 331.858 166.825C332.712 165.466 333.139 163.816 333.139 161.874C333.139 158.768 332.208 156.322 330.344 154.536C328.247 152.556 324.947 151.566 320.443 151.566H308.562V190.413H323.18C327.723 190.413 331.14 189.306 333.431 187.093C335.45 185.074 336.459 182.453 336.459 179.23C336.459 176.279 335.624 173.969 333.955 172.3C332.765 171.11 331.294 170.3 329.542 169.87ZM323.067 165.76L323.071 165.757C323.927 165.154 324.391 164.212 324.391 162.806C324.391 161.572 323.957 160.668 323.109 160.016L323.108 160.015C322.423 159.486 321.05 159.149 318.812 159.149H318.009V166.755H318.87C320.835 166.755 322.2 166.393 323.063 165.763L323.067 165.76ZM317.414 167.349V158.555H318.812C321.064 158.555 322.617 158.885 323.471 159.545C324.481 160.321 324.986 161.409 324.986 162.806C324.986 164.359 324.461 165.505 323.413 166.243C322.404 166.98 320.889 167.349 318.87 167.349H317.414ZM325.804 181.416L325.809 181.411C326.514 180.771 326.896 179.858 326.896 178.59C326.896 177.356 326.531 176.485 325.868 175.885L325.863 175.881C325.446 175.494 324.763 175.163 323.747 174.932C322.738 174.703 321.446 174.583 319.86 174.583H318.009V182.829H319.569C321.192 182.829 322.521 182.7 323.567 182.452C324.618 182.203 325.344 181.844 325.804 181.416ZM317.414 183.424V173.989H319.86C323.083 173.989 325.219 174.474 326.267 175.445C327.082 176.182 327.49 177.231 327.49 178.59C327.49 179.987 327.063 181.075 326.209 181.851C325.083 182.899 322.87 183.424 319.569 183.424H317.414ZM379.671 150.971V159.731H366.684V166.056H379.031V174.816H366.684V182.247H379.671V191.007H356.526V150.971H379.671ZM366.089 182.841V174.222H378.436V166.65H366.089V159.137H379.077V151.566H357.12V190.413H379.077V182.841H366.089ZM423 159.731H414.555V191.007H404.397V159.731H395.952V150.971H423V159.731ZM404.992 159.137V190.413H413.961V159.137H422.406V151.566H396.547V159.137H404.992Z" fill="black"/>
</svg>
