<svg width="310" height="138" viewBox="0 0 310 138" fill="none" xmlns="http://www.w3.org/2000/svg">
<path d="M68.736 5.08257H46.656L23.808 31.1946V5.08257H6.336V73.4346H24V52.3146L31.296 44.7306L49.728 73.4346H71.904L43.392 31.8666L68.736 5.08257ZM184.244 5.08257H165.236L141.908 50.5866L142.58 5.08257H125.204V73.4346H144.788L168.116 27.9306L166.868 73.4346H184.244V5.08257ZM303.401 5.08257H244.361V73.4346H262.312V20.2506H285.449V73.4346H303.401V5.08257Z" fill="black"/>
<path d="M24.66 113.983H20.16C19.692 117.763 17.784 120.535 13.608 120.535C8.136 120.535 6.048 115.675 6.048 110.923C6.048 106.207 8.244 101.347 13.644 101.347C16.956 101.347 19.368 103.183 19.98 106.279H24.444C23.58 100.339 18.828 97.531 13.716 97.531C5.94 97.531 1.512 103.651 1.512 110.923C1.512 119.023 6.264 124.351 13.5 124.351C19.908 124.351 24.192 120.211 24.66 113.983ZM55.0837 98.107H34.2397V101.995H42.4117V123.739H46.9117V101.995H55.0837V98.107ZM72.6435 116.539L72.6075 116.611C71.2755 119.095 70.3755 120.571 68.7195 120.571C67.1355 120.571 66.3075 120.211 65.8395 119.923V123.703C66.5595 124.027 67.7115 124.351 68.8635 124.351C71.7075 124.351 74.0115 122.911 76.1715 118.519L86.1435 98.107H81.2835L74.9475 111.859L68.7555 98.107H63.7875L72.6435 116.539ZM118.489 130.111V119.851H115.609V98.107H98.9047V102.067C98.9047 109.123 97.5007 116.395 95.5567 119.851H93.0727V130.111H97.4287V123.739H114.133V130.111H118.489ZM111.109 119.851H100.381C101.965 116.647 103.297 109.915 103.297 103.543V101.995H111.109V119.851ZM170.833 113.983H166.333C165.865 117.763 163.957 120.535 159.781 120.535C154.309 120.535 152.221 115.675 152.221 110.923C152.221 106.207 154.417 101.347 159.817 101.347C163.129 101.347 165.541 103.183 166.153 106.279H170.617C169.753 100.339 165.001 97.531 159.889 97.531C152.113 97.531 147.685 103.651 147.685 110.923C147.685 119.023 152.437 124.351 159.673 124.351C166.081 124.351 170.365 120.211 170.833 113.983ZM194.545 97.495C186.697 97.495 182.161 103.399 182.161 110.923C182.161 118.915 187.129 124.351 194.473 124.351C201.781 124.351 206.785 118.915 206.785 110.923C206.785 102.967 201.781 97.495 194.545 97.495ZM194.473 101.275C199.225 101.275 202.249 105.019 202.249 110.887C202.249 116.755 199.225 120.571 194.545 120.571C189.721 120.571 186.697 116.827 186.697 110.851C186.697 105.055 189.757 101.275 194.473 101.275ZM219.449 98.107V123.739H232.517C237.305 123.739 240.617 120.715 240.617 116.179C240.617 112.867 238.709 110.671 235.793 109.951C237.953 109.087 239.465 107.035 239.465 104.551C239.465 100.735 236.693 98.107 231.149 98.107H219.449ZM223.841 101.743H230.105C232.661 101.743 235.001 102.067 235.001 105.271C235.001 107.863 233.309 108.799 229.961 108.799H223.841V101.743ZM223.841 112.039H230.501C233.417 112.039 236.117 112.543 236.117 116.071C236.117 119.347 233.597 120.067 230.573 120.067H223.841V112.039ZM271.904 98.107H253.436V123.739H272.12V119.887H257.9V112.327H270.896V108.691H257.9V101.887H271.904V98.107ZM303.184 98.107H282.34V101.995H290.512V123.739H295.012V101.995H303.184V98.107Z" fill="black"/>
</svg>
