<svg width="1495" height="424" viewBox="0 0 1495 424" fill="none" xmlns="http://www.w3.org/2000/svg">
<path d="M50.1088 13.536V93.6L115.773 13.536H169.917L92.1568 104.544L175.965 205.632H118.941L50.1088 120.384V205.632H5.75681V13.536H50.1088Z" fill="black"/>
<path d="M227.494 13.536H271.846V139.104L360.838 11.232H400.006V205.632H355.654V79.776L266.662 207.936H227.494V13.536Z" fill="black"/>
<path d="M470.888 13.536H632.456V205.632H588.104V50.976H515.24V205.632H470.888V13.536Z" fill="black"/>
<path d="M878.82 205.632V178.848H876.516C846.18 178.848 823.524 170.88 808.548 154.944C796.452 141.888 790.404 124.32 790.404 102.24C790.404 81.12 796.644 63.936 809.124 50.688C818.148 41.28 828.996 34.944 841.668 31.68C854.532 28.224 866.148 26.496 876.516 26.496H878.82V0H923.172V26.496H925.476C931.428 26.496 937.572 26.976 943.908 27.936C950.436 28.704 958.596 31.008 968.388 34.848C978.372 38.688 986.532 43.968 992.868 50.688C1005.35 63.936 1011.59 81.12 1011.59 102.24C1011.59 124.32 1005.54 141.888 993.444 154.944C978.468 170.88 955.812 178.848 925.476 178.848H923.172V205.632H878.82ZM880.548 62.208H878.82C863.844 62.208 852.612 65.952 845.124 73.44C838.212 80.352 834.756 90.144 834.756 102.816C834.756 115.296 838.212 124.992 845.124 131.904C852.612 139.392 863.844 143.136 878.82 143.136H880.548V62.208ZM921.444 62.208V143.136H923.172C938.148 143.136 949.38 139.392 956.868 131.904C963.78 124.992 967.236 115.296 967.236 102.816C967.236 90.144 963.78 80.352 956.868 73.44C949.38 65.952 938.148 62.208 923.172 62.208H921.444Z" fill="black"/>
<path d="M1073.38 13.536H1117.73V139.104L1206.73 11.232H1245.89V205.632H1201.54V79.776L1112.55 207.936H1073.38V13.536Z" fill="black"/>
<path d="M1361.13 13.536V86.688H1437.74V13.536H1482.09V205.632H1437.74V124.128H1361.13V205.632H1316.78V13.536H1361.13Z" fill="black"/>
<path d="M102.6 354.032V389.432C93.1333 394.232 83.3333 396.632 73.2 396.632C51.4667 396.632 34 390.165 20.8 377.232C6.93333 363.765 0 346.899 0 326.632C0 306.632 6.93333 289.899 20.8 276.432C34 263.632 50.6 257.232 70.6 257.232C80.4667 257.232 91.1333 259.699 102.6 264.632V300.232C93.6667 290.765 83.2667 286.032 71.4 286.032C60.4667 286.032 51.4 289.499 44.2 296.432C35.8 304.565 31.6 314.832 31.6 327.232C31.6 339.365 35.4667 349.165 43.2 356.632C50.6667 364.099 60.2667 367.832 72 367.832C83.0667 367.832 93.2667 363.232 102.6 354.032Z" fill="black"/>
<path d="M261.391 286.232H232.391V393.632H201.591V286.232H172.591V260.232H261.391V286.232Z" fill="black"/>
<path d="M324.228 260.232H358.628L386.628 321.832L413.428 260.232H446.628L385.628 393.632H352.428L371.828 355.232L324.228 260.232Z" fill="black"/>
<path d="M519.091 260.232H614.691V368.032H629.691V423.632H602.091V393.632H520.291V423.632H492.691V368.032C498.957 366.832 503.957 364.365 507.691 360.632C511.157 357.432 513.757 353.032 515.491 347.432C517.357 341.699 518.424 336.832 518.691 332.832C518.957 328.699 519.091 323.299 519.091 316.632V260.232ZM548.691 285.832V315.632C548.691 330.032 547.824 340.432 546.091 346.832C543.824 355.099 539.824 362.165 534.091 368.032H584.291V285.832H548.691Z" fill="black"/>
<path d="M796.725 354.032V389.432C787.258 394.232 777.458 396.632 767.325 396.632C745.592 396.632 728.125 390.165 714.925 377.232C701.058 363.765 694.125 346.899 694.125 326.632C694.125 306.632 701.058 289.899 714.925 276.432C728.125 263.632 744.725 257.232 764.725 257.232C774.592 257.232 785.258 259.699 796.725 264.632V300.232C787.792 290.765 777.392 286.032 765.525 286.032C754.592 286.032 745.525 289.499 738.325 296.432C729.925 304.565 725.725 314.832 725.725 327.232C725.725 339.365 729.592 349.165 737.325 356.632C744.792 364.099 754.392 367.832 766.125 367.832C777.192 367.832 787.392 363.232 796.725 354.032Z" fill="black"/>
<path d="M942.019 257.232C963.085 257.232 980.285 263.699 993.619 276.632C1007.49 290.099 1014.42 306.899 1014.42 327.032C1014.42 346.899 1007.49 363.565 993.619 377.032C980.152 390.099 962.952 396.632 942.019 396.632C920.952 396.632 903.619 390.099 890.019 377.032C883.485 370.899 878.352 363.565 874.619 355.032C871.019 346.365 869.219 337.165 869.219 327.432C869.219 318.099 871.085 308.899 874.819 299.832C878.685 290.632 883.685 282.965 889.819 276.832C902.885 263.765 920.285 257.232 942.019 257.232ZM941.819 285.632C929.952 285.632 920.219 289.432 912.619 297.032C904.752 304.632 900.819 314.699 900.819 327.232C900.819 339.232 904.885 349.232 913.019 357.232C920.752 364.565 930.285 368.232 941.619 368.232C953.752 368.232 963.619 364.432 971.219 356.832C978.952 349.365 982.819 339.432 982.819 327.032C982.819 314.765 978.952 304.765 971.219 297.032C963.352 289.432 953.552 285.632 941.819 285.632Z" fill="black"/>
<path d="M1091.33 260.232H1132.13C1147.6 260.232 1158.93 263.632 1166.13 270.432C1172.53 276.565 1175.73 284.965 1175.73 295.632C1175.73 302.299 1174.27 307.965 1171.33 312.632C1168.67 317.032 1164.93 320.299 1160.13 322.432C1167.6 323.632 1173.73 326.632 1178.53 331.432C1184.27 337.165 1187.13 345.099 1187.13 355.232C1187.13 366.299 1183.67 375.299 1176.73 382.232C1168.87 389.832 1157.13 393.632 1141.53 393.632H1091.33V260.232ZM1121.73 284.232V314.432H1126.73C1133.67 314.432 1138.87 313.165 1142.33 310.632C1145.93 308.099 1147.73 304.165 1147.73 298.832C1147.73 294.032 1146 290.299 1142.53 287.632C1139.6 285.365 1134.27 284.232 1126.53 284.232H1121.73ZM1121.73 337.232V369.632H1129.13C1140.47 369.632 1148.07 367.832 1151.93 364.232C1154.87 361.565 1156.33 357.832 1156.33 353.032C1156.33 348.365 1154.93 344.765 1152.13 342.232C1148.53 338.899 1141.2 337.232 1130.13 337.232H1121.73Z" fill="black"/>
<path d="M1339.48 260.232V286.232H1294.88V312.032H1337.28V338.032H1294.88V367.632H1339.48V393.632H1264.08V260.232H1339.48Z" fill="black"/>
<path d="M1494.27 286.232H1465.27V393.632H1434.47V286.232H1405.47V260.232H1494.27V286.232Z" fill="black"/>
</svg>
